# xmcd
#
# Track frame offsets:
#	300
#	14993
#	36534
#	56011
#	76740
#
# Disc length: 1246 seconds
#
# Revision: 0
# Processed by: cddbd v1.5.2PL0 Copyright (c) Steve Scherf et al.
# Submitted via: EasyCDDAExtractor 2010.4.0.0
#
DISCID=4104da05
DTITLE=Brendan Leggatt - Sleepy Hollow
DYEAR=2011
DGENRE=Blues
TTITLE0=Sleepy Hollow
TTITLE1=The Traveller
TTITLE2=Last Train
TTITLE3=Lonely Waste Of Time
TTITLE4=Blues On The Back Porch
EXTD=
EXTT0=
EXTT1=
EXTT2=
EXTT3=
EXTT4=
PLAYORDER=
